<?xml version="1.0" encoding="UTF-8" standalone="no"?>
<!DOCTYPE svg PUBLIC "-//W3C//DTD SVG 1.1//EN" "http://www.w3.org/Graphics/SVG/1.1/DTD/svg11.dtd">
<svg version="1.1" xmlns="http://www.w3.org/2000/svg" xmlns:xlink="http://www.w3.org/1999/xlink" preserveAspectRatio="xMidYMid meet" viewBox="-4.696243394164412e-13 0 339.163422528699 484.7001772822166"><defs><path d="M139.41 139.63C139.41 139.63 139.41 139.63 139.41 139.63C146.4 139.63 152.96 137.44 159.3 135.33C165.32 133.33 171 131.44 176.71 131.44C176.73 131.44 176.92 131.44 176.95 131.44C185.45 131.52 193.39 134.34 201.8 137.32C205.43 138.61 209.18 139.99 213.01 141.04C214.62 141.48 215.66 141.02 216.34 140.64C235.21 129.96 251.58 115.77 262.43 100.67C267.83 93.16 272.41 83.07 276.44 69.8C278.3 63.68 280.36 54.54 276.73 45.93C272.07 34.83 259.72 33.53 250.83 33.53C248.15 33.53 231.89 34.2 227.6 34.2C216.74 34.2 204.04 33.33 192.15 26.81C187 23.98 182.14 20.31 177.01 16.43C169.25 10.55 161.21 4.46 151.75 1.31C149.14 0.44 146.51 0 143.95 0C126.04 0 115.25 21.37 111.71 28.38C106.6 38.51 100.72 52.17 100.67 68.07C100.62 82.57 105.36 96.17 109.5 106.41C113.48 116.25 118.13 125.05 122.95 133.94C123.45 134.87 124.77 137.31 133.25 139.03C135.24 139.43 137.31 139.63 139.41 139.63Z" id="RxMrojsq49"></path><path d="M139.41 139.63C139.41 139.63 139.41 139.63 139.41 139.63C146.4 139.63 152.96 137.44 159.3 135.33C165.32 133.33 171 131.44 176.71 131.44C176.73 131.44 176.92 131.44 176.95 131.44C185.45 131.52 193.39 134.34 201.8 137.32C205.43 138.61 209.18 139.99 213.01 141.04C214.62 141.48 215.66 141.02 216.34 140.64C235.21 129.96 251.58 115.77 262.43 100.67C267.83 93.16 272.41 83.07 276.44 69.8C278.3 63.68 280.36 54.54 276.73 45.93C272.07 34.83 259.72 33.53 250.83 33.53C248.15 33.53 231.89 34.2 227.6 34.2C216.74 34.2 204.04 33.33 192.15 26.81C187 23.98 182.14 20.31 177.01 16.43C169.25 10.55 161.21 4.46 151.75 1.31C149.14 0.44 146.51 0 143.95 0C126.04 0 115.25 21.37 111.71 28.38C106.6 38.51 100.72 52.17 100.67 68.07C100.62 82.57 105.36 96.17 109.5 106.41C113.48 116.25 118.13 125.05 122.95 133.94C123.45 134.87 124.77 137.31 133.25 139.03C135.24 139.43 137.31 139.63 139.41 139.63Z" id="kh7hf9ksd2"></path><path d="M161.66 249.41C156.32 250.64 151.71 252.89 148.06 256.12C142.28 261.23 139.23 268.44 139.23 276.97C139.23 291.17 149.83 297.43 161.66 301.38C161.66 296.19 161.66 254.62 161.66 249.41Z" id="r89XwrcSiD"></path><path d="M161.66 249.41C156.32 250.64 151.71 252.89 148.06 256.12C142.28 261.23 139.23 268.44 139.23 276.97C139.23 291.17 149.83 297.43 161.66 301.38C161.66 296.19 161.66 254.62 161.66 249.41Z" id="o2cOZVIIUl"></path><path d="M190.73 394.4C195.24 392.82 199.26 390.44 202.63 387.29C208.74 381.56 212.25 373.56 212.25 365.34C212.25 352.54 205.2 343.42 192.38 339.64C192.16 339.57 191.61 339.41 190.73 339.14C190.73 372.29 190.73 390.72 190.73 394.4Z" id="ItDuci9Sns"></path><path d="M190.73 394.4C195.24 392.82 199.26 390.44 202.63 387.29C208.74 381.56 212.25 373.56 212.25 365.34C212.25 352.54 205.2 343.42 192.38 339.64C192.16 339.57 191.61 339.41 190.73 339.14C190.73 372.29 190.73 390.72 190.73 394.4Z" id="dumNrG9SkU"></path><path d="M224.41 158.57C217.9 156.07 204.6 156.04 196.7 153.24C189.38 150.63 181.69 147.78 173.85 148.31C166.67 148.79 159.94 151.55 153 153.31C145.2 155.29 137.67 155.85 129.77 154.26C129.77 154.26 119.02 152.59 93.64 132.43C83.32 124.24 72.3 116.91 59.6 113.96C47.52 111.17 42.38 131.01 54.49 133.81C66.07 136.5 75.56 143.65 84.99 151.03C85 151.04 85.02 151.06 85.04 151.07C71.81 152.94 59.48 158.59 46.68 162.35C34.74 165.85 39.81 185.72 51.79 182.21C64.75 178.39 77.61 171.77 91.17 171.05C93.33 170.95 95.4 171.2 97.44 171.62C67.17 198.32 39.22 227.77 19.27 264.48C2.02 296.23 -5.67 333.17 4.66 368.94C10.71 389.88 22.31 408.45 35.84 424.66C47.65 438.83 60.9 451.6 76.62 460.5C104.99 476.55 138.06 483.02 169.84 484.44C203.89 485.96 239 480.93 270.39 466.26C299 452.9 323.29 429.65 333.44 397.42C346.81 354.87 335.07 307.55 315.65 269.53C297.88 234.71 272.76 206.41 245.99 179.27C238.55 171.73 231.62 165.12 224.41 158.57ZM190.73 431.89C190.73 440.49 184.22 447.46 176.2 447.46C168.17 447.46 161.66 440.49 161.66 431.89C161.66 430.35 161.66 418.01 161.66 416.48C145.02 414.01 134.32 407.67 127.88 402.16C118.77 394.36 113.32 383.92 113.32 374.23C113.32 366.69 117.52 361.62 123.76 361.62C129.3 361.62 131.98 365.4 136.63 372.64C141.6 380.36 147.98 390.25 161.66 394.53C161.66 390.25 161.66 368.88 161.66 330.43C154.73 328.36 150.88 327.2 150.11 326.98C123.21 318.89 113.78 294.87 113.78 279.4C113.78 261.44 120.59 246.99 133.45 237.6C141.05 232.06 150.8 228.34 161.66 226.74C161.66 225.22 161.66 213.02 161.66 211.5C161.66 202.89 168.17 195.92 176.2 195.92C184.22 195.92 190.73 202.89 190.73 211.5C190.73 213.14 190.73 226.29 190.73 227.94C199.06 229.97 207.19 233.4 214.07 237.93C220.93 242.44 232.44 252.01 232.44 265.38C232.44 273.54 226.51 277.19 220.63 277.19C216.22 277.19 213.96 274.41 209.65 268.63C205.49 263.02 200.31 256.05 190.73 251.92C190.73 255.75 190.73 274.9 190.73 309.36C196.38 310.87 199.52 311.71 200.15 311.87C228.98 319.59 239.07 341.23 239.07 362.11C239.07 379.39 233.29 393.59 222.36 403.19C214.26 410.3 203.65 414.79 190.73 416.62C190.73 418.14 190.73 430.36 190.73 431.89Z" id="lq8z0mQSke"></path><path d="M224.41 158.57C217.9 156.07 204.6 156.04 196.7 153.24C189.38 150.63 181.69 147.78 173.85 148.31C166.67 148.79 159.94 151.55 153 153.31C145.2 155.29 137.67 155.85 129.77 154.26C129.77 154.26 119.02 152.59 93.64 132.43C83.32 124.24 72.3 116.91 59.6 113.96C47.52 111.17 42.38 131.01 54.49 133.81C66.07 136.5 75.56 143.65 84.99 151.03C85 151.04 85.02 151.06 85.04 151.07C71.81 152.94 59.48 158.59 46.68 162.35C34.74 165.85 39.81 185.72 51.79 182.21C64.75 178.39 77.61 171.77 91.17 171.05C93.33 170.95 95.4 171.2 97.44 171.62C67.17 198.32 39.22 227.77 19.27 264.48C2.02 296.23 -5.67 333.17 4.66 368.94C10.71 389.88 22.31 408.45 35.84 424.66C47.65 438.83 60.9 451.6 76.62 460.5C104.99 476.55 138.06 483.02 169.84 484.44C203.89 485.96 239 480.93 270.39 466.26C299 452.9 323.29 429.65 333.44 397.42C346.81 354.87 335.07 307.55 315.65 269.53C297.88 234.71 272.76 206.41 245.99 179.27C238.55 171.73 231.62 165.12 224.41 158.57ZM190.73 431.89C190.73 440.49 184.22 447.46 176.2 447.46C168.17 447.46 161.66 440.49 161.66 431.89C161.66 430.35 161.66 418.01 161.66 416.48C145.02 414.01 134.32 407.67 127.88 402.16C118.77 394.36 113.32 383.92 113.32 374.23C113.32 366.69 117.52 361.62 123.76 361.62C129.3 361.62 131.98 365.4 136.63 372.64C141.6 380.36 147.98 390.25 161.66 394.53C161.66 390.25 161.66 368.88 161.66 330.43C154.73 328.36 150.88 327.2 150.11 326.98C123.21 318.89 113.78 294.87 113.78 279.4C113.78 261.44 120.59 246.99 133.45 237.6C141.05 232.06 150.8 228.34 161.66 226.74C161.66 225.22 161.66 213.02 161.66 211.5C161.66 202.89 168.17 195.92 176.2 195.92C184.22 195.92 190.73 202.89 190.73 211.5C190.73 213.14 190.73 226.29 190.73 227.94C199.06 229.97 207.19 233.4 214.07 237.93C220.93 242.44 232.44 252.01 232.44 265.38C232.44 273.54 226.51 277.19 220.63 277.19C216.22 277.19 213.96 274.41 209.65 268.63C205.49 263.02 200.31 256.05 190.73 251.92C190.73 255.75 190.73 274.9 190.73 309.36C196.38 310.87 199.52 311.71 200.15 311.87C228.98 319.59 239.07 341.23 239.07 362.11C239.07 379.39 233.29 393.59 222.36 403.19C214.26 410.3 203.65 414.79 190.73 416.62C190.73 418.14 190.73 430.36 190.73 431.89Z" id="CcgEJRJ0lb"></path><path d="M244.23 186.53L244.23 468.15L106.22 468.15L106.22 186.53L244.23 186.53Z" id="UEYf7odf6n"></path></defs><g visibility="inherit"><g visibility="inherit"><use xlink:href="#RxMrojsq49" opacity="1" fill="#000000" fill-opacity="1"></use><g><use xlink:href="#RxMrojsq49" opacity="1" fill-opacity="0" stroke="#000000" stroke-width="1" stroke-opacity="0"></use></g></g><g visibility="inherit"><use xlink:href="#kh7hf9ksd2" opacity="1" fill="#000000" fill-opacity="1"></use><g><use xlink:href="#kh7hf9ksd2" opacity="1" fill-opacity="0" stroke="#000000" stroke-width="1" stroke-opacity="0"></use></g></g><g visibility="inherit"><use xlink:href="#r89XwrcSiD" opacity="1" fill="#000000" fill-opacity="1"></use><g><use xlink:href="#r89XwrcSiD" opacity="1" fill-opacity="0" stroke="#000000" stroke-width="1" stroke-opacity="0"></use></g></g><g visibility="inherit"><use xlink:href="#o2cOZVIIUl" opacity="1" fill="#000000" fill-opacity="1"></use><g><use xlink:href="#o2cOZVIIUl" opacity="1" fill-opacity="0" stroke="#000000" stroke-width="1" stroke-opacity="0"></use></g></g><g visibility="inherit"><use xlink:href="#ItDuci9Sns" opacity="1" fill="#000000" fill-opacity="1"></use><g><use xlink:href="#ItDuci9Sns" opacity="1" fill-opacity="0" stroke="#000000" stroke-width="1" stroke-opacity="0"></use></g></g><g visibility="inherit"><use xlink:href="#dumNrG9SkU" opacity="1" fill="#000000" fill-opacity="1"></use><g><use xlink:href="#dumNrG9SkU" opacity="1" fill-opacity="0" stroke="#000000" stroke-width="1" stroke-opacity="0"></use></g></g><g visibility="inherit"><use xlink:href="#lq8z0mQSke" opacity="1" fill="#000000" fill-opacity="1"></use><g><use xlink:href="#lq8z0mQSke" opacity="1" fill-opacity="0" stroke="#000000" stroke-width="1" stroke-opacity="0"></use></g></g><g visibility="inherit"><use xlink:href="#CcgEJRJ0lb" opacity="1" fill="#000000" fill-opacity="1"></use><g><use xlink:href="#CcgEJRJ0lb" opacity="1" fill-opacity="0" stroke="#000000" stroke-width="1" stroke-opacity="0"></use></g></g><g visibility="inherit"><use xlink:href="#UEYf7odf6n" opacity="1" fill="#000000" fill-opacity="1"></use><g><use xlink:href="#UEYf7odf6n" opacity="1" fill-opacity="0" stroke="#000000" stroke-width="1" stroke-opacity="0"></use></g></g></g></svg>